<svg width="64" height="64" viewBox="0 0 64 64" fill="none" xmlns="http://www.w3.org/2000/svg">
<path d="M1.43848 31.9998C1.43848 15.121 15.1215 1.43799 32.0003 1.43799C48.8791 1.43799 62.5621 15.121 62.5621 31.9998C62.5621 48.8786 48.8791 62.5616 32.0003 62.5616C15.1215 62.5616 1.43848 48.8786 1.43848 31.9998Z" fill="#BABABA"/>
<path fill-rule="evenodd" clip-rule="evenodd" d="M0 32C0 14.3269 14.3269 0 32 0C49.6731 0 64 14.3269 64 32C64 49.6731 49.6731 64 32 64C14.3269 64 0 49.6731 0 32ZM32 1.4382C15.1212 1.4382 1.4382 15.1212 1.4382 32C1.4382 48.8788 15.1212 62.5618 32 62.5618C48.8788 62.5618 62.5618 48.8788 62.5618 32C62.5618 15.1212 48.8788 1.4382 32 1.4382Z" fill="black"/>
<path d="M16.3597 54.9102C17.2976 54.7664 17.5391 54.6919 18.517 54.6919C23.7528 54.6919 28.4908 56.8287 31.9103 60.2799C35.3298 56.8287 40.0677 54.6919 45.3035 54.6919C46.3441 54.6919 46.6459 54.7763 47.6406 54.9386L48.3597 34.2794C47.365 34.1171 46.3441 34.0327 45.3035 34.0327C40.0677 34.0327 35.3298 36.1696 31.9103 39.6207C28.4908 36.1696 23.7528 34.0327 18.517 34.0327C17.5391 34.0327 16.5785 34.1073 15.6406 34.251L16.3597 54.9102Z" fill="#FFCB12"/>
<path fill-rule="evenodd" clip-rule="evenodd" d="M16.3816 34.8761L17.0498 54.0725C17.4734 54.0088 17.8392 53.9727 18.5167 53.9727C23.6962 53.9727 28.4071 55.9877 31.91 59.2764C35.4129 55.9877 40.1238 53.9727 45.3032 53.9727C46.053 53.9727 46.4618 54.0165 46.9502 54.0943L47.6183 34.8982C46.8605 34.8015 46.0878 34.7517 45.3032 34.7517C40.2673 34.7517 35.711 36.8061 32.4208 40.1267L31.91 40.6423L31.3992 40.1267C28.109 36.8061 23.5527 34.7517 18.5167 34.7517C17.7941 34.7517 17.0817 34.794 16.3816 34.8761ZM15.5314 33.5401C16.5052 33.3908 17.5022 33.3135 18.5167 33.3135C23.6962 33.3135 28.4071 35.3285 31.91 38.6172C35.4129 35.3285 40.1238 33.3135 45.3032 33.3135C46.3827 33.3135 47.4423 33.401 48.4752 33.5696L49.1001 33.6716L48.3306 55.7797L47.5245 55.6482C47.3607 55.6215 47.2172 55.5972 47.0874 55.5752C46.4176 55.4618 46.1166 55.4109 45.3032 55.4109C40.2673 55.4109 35.711 57.4653 32.4208 60.7859L31.91 61.3015L31.3992 60.7859C28.109 57.4653 23.5527 55.4109 18.5167 55.4109C17.7775 55.4109 17.5199 55.4525 16.937 55.5466C16.8017 55.5685 16.6488 55.5932 16.4684 55.6208L15.6689 55.7434L14.8994 33.6369L15.5314 33.5401Z" fill="black"/>
<path fill-rule="evenodd" clip-rule="evenodd" d="M39.7741 24.5352C40.058 25.0888 40.2742 25.6886 40.4097 26.3263C40.8953 26.2231 41.3726 26.533 41.4758 27.0187C41.579 27.5043 41.2691 27.9816 40.7835 28.0848C40.7498 28.092 40.7162 28.0971 40.6828 28.1005C40.6426 28.1043 40.6026 28.1055 40.563 28.104C40.4391 31.3151 38.1579 34.1566 34.8709 34.8553C31.5839 35.554 28.3442 33.886 26.925 31.0029C26.8599 31.0348 26.7898 31.0592 26.7157 31.075C26.2302 31.1782 25.7528 30.8683 25.6496 30.3826C25.5464 29.897 25.8564 29.4197 26.342 29.3165C26.2087 28.6897 26.1615 28.0646 26.1925 27.4534C26.2004 27.2966 26.2135 27.1407 26.2316 26.9859C26.233 26.9738 26.2344 26.9618 26.2359 26.9498L25.1276 20.1447C24.8019 20.3377 24.2253 20.5391 23.7554 20.6661C23.6337 20.699 23.5192 20.7269 23.418 20.7484C20.9901 21.2645 18.6035 19.7146 18.0874 17.2867C17.5714 14.8589 19.1212 12.4722 21.5491 11.9561C21.802 11.9024 22.0544 11.871 22.3043 11.8608C22.4778 11.8536 22.65 11.8566 22.8204 11.8693C22.825 11.5924 22.8456 11.318 22.8816 11.0473C23.2714 8.1159 25.4588 5.61133 28.5168 4.96135C31.5747 4.31136 34.5917 5.7097 36.1401 8.22909C36.2831 8.4618 36.4136 8.70407 36.5304 8.95517C36.6809 8.87429 36.837 8.80147 36.9984 8.73744C37.2309 8.64518 37.4742 8.57114 37.727 8.51739C40.155 8.00132 42.5416 9.55127 43.0577 11.9791C43.5737 14.407 42.0239 16.7937 39.5959 17.3097C39.4947 17.3312 39.3788 17.3523 39.2542 17.3717C38.7732 17.4468 38.1646 17.4974 37.7886 17.4536L39.544 24.1211C39.6249 24.256 39.7017 24.3941 39.7741 24.5352ZM26.2082 17.8327L24.3945 18.9074C24.1814 19.0337 23.5504 19.25 23.119 19.3417C21.468 19.6926 19.8451 18.6386 19.4942 16.9877C19.1433 15.3368 20.1972 13.7138 21.8482 13.3629C22.1417 13.3005 22.4321 13.2826 22.7135 13.3036L24.233 13.4168L24.2584 11.8932C24.3019 9.27345 26.1453 6.93576 28.8158 6.36812C31.4863 5.80049 34.1211 7.1863 35.2265 9.56189L35.8693 10.9435L37.2115 10.2219C37.46 10.0883 37.7325 9.98656 38.0261 9.92416C39.677 9.57324 41.3 10.6272 41.6509 12.2781C42.0018 13.9291 40.9479 15.552 39.2969 15.903C38.8655 15.9947 38.201 16.0537 37.9551 16.025L35.861 15.7809L37.9687 23.7866C36.3415 24.4515 34.6326 24.9812 32.8525 25.3596C31.0725 25.7379 29.2959 25.9491 27.5389 26.0036L26.2082 17.8327ZM27.6339 27.4397C29.4585 27.3801 31.3033 27.1592 33.1516 26.7664C34.9998 26.3735 36.7749 25.8249 38.4661 25.1372C38.7067 25.5941 38.8896 26.0923 39.0029 26.6253L39.1535 27.3336L39.1259 28.0486C39.0267 30.6177 37.1996 32.89 34.5719 33.4485C31.9442 34.0071 29.3508 32.6744 28.2153 30.3677L27.8993 29.7257L27.7487 29.0175C27.6354 28.4844 27.6 27.9549 27.6339 27.4397Z" fill="black"/>
<path d="M14.3818 47.5155C14.3818 46.0262 15.5892 44.8188 17.0785 44.8188C18.5678 44.8188 19.7751 46.0262 19.7751 47.5155C19.7751 49.0048 18.5678 50.2121 17.0785 50.2121C15.5892 50.2121 14.3818 49.0048 14.3818 47.5155Z" fill="#C64848"/>
<path d="M44.2246 47.5155C44.2246 46.0262 45.4319 44.8188 46.9212 44.8188C48.4105 44.8188 49.6179 46.0262 49.6179 47.5155C49.6179 49.0048 48.4105 50.2121 46.9212 50.2121C45.4319 50.2121 44.2246 49.0048 44.2246 47.5155Z" fill="#C64848"/>
<path fill-rule="evenodd" clip-rule="evenodd" d="M27.6334 27.4397C29.4581 27.38 31.3029 27.1592 33.1511 26.7663C34.9993 26.3735 36.7745 25.8249 38.4657 25.1372C38.7062 25.5941 38.8892 26.0922 39.0025 26.6253L39.153 27.3335L39.1254 28.0485C39.0263 30.6177 37.1991 32.89 34.5715 33.4485C31.9438 34.007 29.3504 32.6743 28.2148 30.3676L27.8988 29.7257L27.7483 29.0175C27.635 28.4844 27.5995 27.9549 27.6334 27.4397Z" fill="#C64848"/>
<path fill-rule="evenodd" clip-rule="evenodd" d="M17.0788 45.5383C15.9867 45.5383 15.1013 46.4237 15.1013 47.5158C15.1013 48.608 15.9867 49.4934 17.0788 49.4934C18.171 49.4934 19.0563 48.608 19.0563 47.5158C19.0563 46.4237 18.171 45.5383 17.0788 45.5383ZM13.6631 47.5158C13.6631 45.6294 15.1924 44.1001 17.0788 44.1001C18.9653 44.1001 20.4945 45.6294 20.4945 47.5158C20.4945 49.4023 18.9653 50.9316 17.0788 50.9316C15.1924 50.9316 13.6631 49.4023 13.6631 47.5158Z" fill="black"/>
<path fill-rule="evenodd" clip-rule="evenodd" d="M46.9216 45.5383C45.8294 45.5383 44.9441 46.4237 44.9441 47.5158C44.9441 48.608 45.8294 49.4934 46.9216 49.4934C48.0137 49.4934 48.8991 48.608 48.8991 47.5158C48.8991 46.4237 48.0137 45.5383 46.9216 45.5383ZM43.5059 47.5158C43.5059 45.6294 45.0351 44.1001 46.9216 44.1001C48.808 44.1001 50.3373 45.6294 50.3373 47.5158C50.3373 49.4023 48.808 50.9316 46.9216 50.9316C45.0351 50.9316 43.5059 49.4023 43.5059 47.5158Z" fill="black"/>
<path fill-rule="evenodd" clip-rule="evenodd" d="M26.2082 17.8326L24.3944 18.9074C24.1814 19.0336 23.5504 19.2499 23.119 19.3416C21.468 19.6925 19.8451 18.6386 19.4942 16.9876C19.1432 15.3367 20.1972 13.7137 21.8481 13.3628C22.1417 13.3004 22.4321 13.2825 22.7134 13.3035L24.233 13.4167L24.2583 11.8932C24.3019 9.27337 26.1453 6.93568 28.8158 6.36805C31.4863 5.80041 34.1211 7.18623 35.2265 9.56181L35.8693 10.9434L37.2114 10.2218C37.46 10.0882 37.7325 9.98648 38.026 9.92409C39.677 9.57316 41.2999 10.6271 41.6509 12.2781C42.0018 13.929 40.9479 15.552 39.2969 15.9029C38.8655 15.9946 38.201 16.0536 37.9551 16.025L35.861 15.7809L37.9687 23.7866C36.3415 24.4514 34.6325 24.9812 32.8525 25.3595C31.0725 25.7379 29.2959 25.949 27.5389 26.0035L26.2082 17.8326Z" fill="white"/>
</svg>
